<?xml version="1.0" standalone="no"?>
<!DOCTYPE svg PUBLIC "-//W3C//DTD SVG 20010904//EN"
 "http://www.w3.org/TR/2001/REC-SVG-20010904/DTD/svg10.dtd">
<svg version="1.0" xmlns="http://www.w3.org/2000/svg"
 width="71.000000pt" height="357.000000pt" viewBox="0 0 71.000000 357.000000"
 preserveAspectRatio="xMidYMid meet">
<g transform="translate(0.000000,357.000000) scale(0.100000,-0.100000)"
fill="#000000" stroke="none">
<path d="M200 3472 c0 -8 -5 -12 -12 -10 -7 3 -20 -3 -30 -11 -15 -13 -18 -32
-18 -127 0 -100 2 -114 23 -140 12 -16 20 -30 19 -32 -2 -2 0 -7 4 -10 4 -4 4
0 -1 8 -5 9 -5 12 1 7 5 -5 9 -14 9 -20 1 -7 7 -11 15 -9 10 3 9 -3 -5 -20
-11 -13 -13 -17 -5 -10 8 6 17 12 21 12 4 0 10 -53 12 -117 6 -134 7 -144 19
-137 4 3 8 0 8 -5 0 -7 22 -11 53 -11 88 1 88 -1 82 321 -3 217 -7 275 -18
287 -10 9 -38 14 -88 14 -44 0 -77 5 -81 12 -5 8 -8 7 -8 -2z m170 -317 l0
-285 -55 0 -55 0 0 118 -1 117 -49 60 -50 60 0 107 0 108 105 0 105 0 0 -285z"/>
<path d="M251 2707 c-14 -14 -15 -147 -1 -147 6 0 10 28 10 65 l0 65 56 0 55
0 -51 -59 c-32 -37 -49 -64 -44 -72 5 -8 3 -9 -6 -4 -8 5 -11 4 -6 -3 10 -16
38 -2 32 15 -3 8 -1 11 4 8 6 -3 10 -1 10 5 0 6 5 8 10 5 6 -3 10 1 10 9 0 8
5 18 12 22 7 5 8 3 3 -6 -5 -9 -4 -11 4 -6 6 4 9 11 6 16 -3 4 2 13 10 20 8 7
15 19 15 27 0 8 5 11 10 8 6 -4 6 2 -1 17 -9 20 -18 24 -68 25 -33 1 -63 -3
-70 -10z"/>
<path d="M344 2581 c6 -9 -3 -14 -24 -13 -3 0 -14 -11 -24 -26 -11 -14 -14
-22 -6 -17 8 5 11 3 8 -6 -3 -8 -12 -13 -21 -13 -9 1 -16 -1 -15 -5 1 -3 -4
-19 -10 -34 -16 -37 -16 -197 -1 -197 8 0 7 -6 -2 -17 -9 -11 -4 -10 15 5 15
12 33 19 39 15 5 -3 7 -1 4 4 -7 12 16 36 26 28 4 -3 5 -2 2 1 -2 4 10 25 28
49 31 40 32 46 32 129 0 47 -5 86 -10 87 -6 1 -18 5 -29 11 -13 7 -16 7 -12
-1z m-24 -237 c-29 -35 -54 -64 -56 -64 -2 0 -4 36 -4 79 l0 79 53 63 52 63 3
-78 3 -77 -51 -65z"/>
<path d="M357 2307 c3 -16 1 -27 -5 -25 -14 4 -102 -93 -95 -105 3 -6 1 -7 -4
-4 -19 12 -30 -94 -17 -161 4 -18 15 -34 31 -41 14 -7 21 -16 17 -23 -5 -7 -3
-8 7 -2 8 4 -1 -9 -19 -31 -31 -38 -32 -43 -32 -125 0 -79 7 -112 24 -111 11
0 96 91 96 102 0 6 5 7 10 4 6 -4 10 -3 9 2 -3 18 1 34 9 30 4 -3 7 35 7 84 0
49 -4 89 -8 89 -5 0 -5 5 -2 10 4 6 1 9 -6 8 -7 -2 -13 2 -14 9 0 6 -4 15 -9
20 -5 5 -6 3 -2 -4 4 -8 2 -13 -6 -13 -10 0 -10 -2 1 -9 9 -6 10 -11 2 -15 -6
-4 -11 -4 -11 0 0 3 -8 -4 -18 -16 -26 -32 -48 -18 -26 15 9 14 20 22 25 19 5
-3 9 2 9 10 0 8 8 21 18 28 23 18 61 64 43 53 -10 -6 -12 -4 -7 4 12 19 13
170 1 168 -5 -1 -10 8 -9 20 0 12 -3 20 -7 17 -4 -2 -10 2 -13 8 -3 7 -3 0 1
-15z m-39 -252 l-53 -64 -3 79 -3 79 53 65 53 65 3 -80 3 -79 -53 -65z m1
-287 c-29 -35 -55 -64 -58 -66 -3 -1 -4 35 -1 81 5 82 6 84 55 145 l50 62 3
-80 3 -80 -52 -62z"/>
<path d="M306 1993 c-6 -14 -5 -15 5 -6 7 7 10 15 7 18 -3 3 -9 -2 -12 -12z"/>
<path d="M344 1716 c-3 -9 -10 -16 -16 -16 -5 0 -6 6 -2 13 4 7 3 9 -2 4 -5
-5 -10 -13 -10 -18 -1 -5 -2 -14 -3 -20 0 -5 -5 -8 -10 -5 -5 3 -8 -2 -7 -12
0 -9 -5 -16 -12 -14 -6 1 -11 -1 -10 -5 3 -15 -14 -43 -23 -37 -5 3 -9 -39 -9
-95 0 -60 4 -102 11 -106 6 -4 8 -13 5 -21 -3 -8 0 -11 9 -7 8 3 13 9 10 13
-6 10 30 42 38 33 4 -3 7 3 7 15 0 11 4 24 10 27 19 12 50 14 50 3 0 -6 3 -8
6 -5 4 4 1 13 -6 22 -10 12 -10 18 0 30 6 8 9 19 5 25 -3 5 -3 10 2 10 4 0 8
36 8 79 0 44 -2 77 -4 75 -2 -2 -13 3 -22 12 -17 16 -19 16 -25 0z m2 -199
c-13 -18 -38 -48 -55 -67 l-30 -35 -1 80 0 80 53 64 52 64 3 -77 c3 -70 0 -81
-22 -109z"/>
<path d="M330 1410 c-25 -23 -54 -48 -65 -56 -13 -11 -10 -10 10 2 l30 17 -33
-35 -33 -35 3 -93 c3 -90 4 -94 27 -100 23 -5 23 -6 7 -23 -10 -9 -12 -17 -6
-17 6 0 13 7 16 15 4 8 10 12 16 9 9 -6 -31 -41 -42 -37 -12 4 -25 -191 -14
-215 4 -9 6 -23 5 -31 -2 -13 66 52 102 97 10 13 23 20 29 16 6 -4 8 -3 4 4
-3 6 -2 22 4 37 7 19 7 24 -2 19 -7 -5 -8 -3 -2 7 4 8 9 45 10 82 0 37 -2 63
-6 56 -6 -8 -9 -8 -14 0 -4 6 -4 11 0 11 3 0 1 7 -6 15 -15 18 -31 10 -23 -12
5 -12 3 -14 -8 -8 -8 4 -11 5 -7 0 11 -12 -21 -40 -33 -28 -6 6 1 23 18 46 32
41 36 43 56 22 13 -13 16 -13 21 1 3 8 2 13 -2 10 -14 -9 -33 10 -26 27 3 9
10 14 15 11 5 -3 10 10 10 28 1 18 2 58 3 88 1 31 -4 64 -11 76 -7 11 -10 24
-6 27 3 4 4 7 2 7 -3 0 -25 -18 -49 -40z m-12 -217 l-53 -65 -3 82 c-3 81 -2
82 32 120 19 21 43 51 53 66 l18 28 3 -83 3 -82 -53 -66z m0 -287 l-53 -65 -3
79 -3 79 53 65 53 65 3 -79 3 -79 -53 -65z"/>
<path d="M324 838 c-3 -10 -10 -15 -16 -12 -7 4 -8 2 -4 -5 9 -13 -12 -44 -24
-36 -4 3 -7 -3 -6 -13 1 -11 -5 -16 -19 -15 -11 1 -14 0 -7 -3 9 -4 10 -9 2
-19 -13 -16 -9 -187 5 -192 6 -2 9 28 7 82 l-3 86 53 65 53 66 3 -81 3 -82
-53 -61 c-33 -38 -48 -63 -40 -65 6 -3 10 -9 6 -14 -3 -5 -3 -9 -1 -9 3 0 14
16 26 36 12 19 25 33 30 30 5 -3 8 2 7 11 0 9 5 18 13 21 10 3 12 0 8 -12 -9
-24 -2 -20 18 10 9 15 12 23 6 20 -6 -4 -11 0 -11 9 0 9 3 14 8 12 4 -3 7 37
7 88 1 52 -2 93 -5 93 -3 0 -7 1 -10 2 -24 9 -51 4 -56 -12z"/>
<path d="M346 565 c-9 -14 -21 -23 -27 -20 -5 4 -9 3 -8 -2 4 -22 -2 -34 -13
-27 -7 4 -10 3 -5 -1 4 -5 -6 -22 -22 -39 -17 -17 -30 -34 -30 -39 1 -4 -2
-38 -6 -76 -5 -53 -3 -75 9 -99 8 -16 14 -31 13 -33 -1 -3 7 5 19 16 11 11 20
23 20 26 -1 3 13 17 29 32 28 24 31 25 50 9 19 -16 19 -16 5 2 -20 26 -20 42
-1 63 22 25 21 155 -3 181 -9 10 -13 22 -9 25 3 4 4 7 1 7 -3 0 -13 -11 -22
-25z m0 -199 c-13 -17 -39 -48 -57 -69 l-34 -39 5 86 c5 85 5 86 55 149 l50
63 3 -79 c3 -71 0 -82 -22 -111z"/>
<path d="M249 483 c-13 -16 -12 -17 4 -4 9 7 17 15 17 17 0 8 -8 3 -21 -13z"/>
<path d="M315 258 c-16 -15 -23 -28 -16 -28 6 0 1 -11 -11 -24 -13 -13 -26
-21 -30 -19 -5 2 -8 1 -9 -4 0 -4 -2 -16 -4 -26 -5 -28 23 -47 70 -47 39 0 73
17 76 38 5 31 4 99 -2 107 -4 6 -9 14 -11 20 -6 18 -35 11 -63 -17z m57 -48
l-4 -70 -54 0 -54 0 57 70 c32 39 57 70 58 70 0 0 -1 -31 -3 -70z"/>
</g>
</svg>
