<svg version="1.0" xmlns="http://www.w3.org/2000/svg" width="422.000000pt" height="287.000000pt" viewBox="0 0 422.000000 287.000000" preserveAspectRatio="xMidYMid meet" style="width: 617.541px; height: auto;"> <g transform="translate(0.000000,287.000000) scale(0.100000,-0.100000)" fill="#000000" stroke="none" class="">  <path d="M837 2808 c3 -18 -20 -48 -116 -144 -113 -114 -121 -124 -121 -161 0 -34 -7 -46 -63 -101 l-63 -62 -124 0 -125 0 -93 -93 -92 -92 0 -138 0 -138 92 2 93 2 0 -32 c0 -17 3 -31 8 -31 4 0 37 32 73 70 83 88 99 89 172 19 48 -47 52 -54 52 -97 0 -46 -2 -50 -83 -130 l-82 -82 -70 0 -70 0 3 -125 3 -125 67 0 67 0 83 -83 c81 -81 82 -83 82 -132 0 -48 -3 -52 -54 -97 -32 -28 -64 -48 -78 -48 -16 0 -46 23 -93 70 -38 39 -72 70 -75 70 -3 0 -4 -16 -2 -36 l4 -36 -96 4 -96 3 0 -135 0 -135 93 -93 92 -92 125 0 126 0 62 -63 c55 -56 62 -67 62 -102 0 -38 7 -47 121 -160 95 -95 119 -125 116 -142 l-4 -23 187 0 188 0 31 35 30 35 274 0 c272 0 297 3 297 34 0 8 -58 10 -177 8 l-178 -3 -45 46 c-40 40 -49 45 -90 45 -44 0 -49 3 -130 85 l-85 85 -95 0 -96 0 -74 75 c-65 65 -79 75 -110 75 -31 0 -46 10 -119 84 l-83 84 26 17 c21 14 26 25 24 49 -3 29 -1 31 32 31 31 0 48 13 148 112 94 94 112 116 112 142 l0 31 -117 0 -118 0 -82 81 -83 82 0 121 0 121 83 83 82 82 118 0 117 0 0 28 c0 22 -24 51 -115 142 -107 107 -117 114 -150 111 -33 -2 -35 -1 -29 26 4 22 0 34 -21 53 l-26 24 83 83 c72 73 87 83 118 83 31 0 45 10 110 75 l74 75 96 0 95 0 84 84 c80 80 84 83 124 80 38 -3 46 1 89 43 l46 46 181 -2 c147 -2 181 0 181 11 0 35 -20 38 -297 38 l-274 0 -30 35 -31 35 -188 0 -187 0 4 -22z m379 -31 c14 -15 30 -27 36 -27 6 0 3 -9 -6 -19 -15 -17 -15 -19 -2 -17 8 1 19 5 22 9 4 4 50 7 102 7 l95 0 -23 -20 c-13 -12 -30 -18 -37 -16 -18 7 -28 -14 -12 -25 9 -6 10 -9 2 -9 -6 0 -15 5 -18 10 -4 6 -11 7 -17 4 -6 -4 -5 -10 3 -16 10 -7 5 -8 -15 -5 -28 5 -64 -8 -77 -27 -4 -5 -12 -6 -18 -2 -7 5 -8 1 -4 -10 5 -13 3 -15 -7 -9 -10 6 -12 4 -7 -8 4 -11 2 -14 -9 -10 -7 3 -14 0 -14 -5 0 -14 -48 -62 -62 -62 -7 0 -7 4 1 13 8 10 7 14 -3 14 -8 0 -13 -7 -11 -16 5 -33 -16 -41 -102 -41 -54 0 -94 -5 -112 -15 -16 -8 -32 -11 -36 -7 -5 4 -5 1 -1 -6 5 -9 -11 -32 -46 -68 -30 -29 -53 -56 -50 -59 3 -3 -13 -5 -36 -5 -22 0 -47 -7 -55 -15 -8 -8 -23 -13 -34 -11 -13 3 -19 -2 -20 -16 -2 -20 -1 -20 12 -2 8 11 15 14 15 7 0 -13 -31 -39 -79 -65 -17 -9 -31 -23 -30 -30 0 -10 2 -10 6 0 2 7 14 17 26 23 14 7 8 -3 -16 -29 -38 -38 -38 -41 -23 -64 9 -14 13 -28 9 -31 -3 -4 -1 -7 5 -7 6 0 9 -6 6 -14 -3 -8 3 -23 14 -34 11 -11 17 -23 14 -27 -4 -3 1 -3 11 1 9 3 24 1 32 -6 8 -7 15 -8 15 -3 0 6 24 -13 53 -41 30 -28 52 -53 50 -55 -1 -2 7 -9 20 -16 12 -6 21 -17 20 -23 -2 -7 4 -12 13 -12 10 0 14 -5 10 -16 -3 -8 -2 -12 4 -9 14 9 45 -24 34 -35 -12 -11 -147 -16 -164 -5 -7 4 -16 2 -21 -6 -6 -10 -9 -10 -9 -2 0 7 -7 10 -15 6 -9 -3 -14 -8 -11 -10 2 -2 -17 -26 -42 -53 -36 -36 -50 -45 -60 -37 -7 6 -12 6 -11 1 4 -23 -2 -45 -11 -39 -5 3 -10 -1 -10 -9 0 -9 -5 -16 -11 -16 -5 0 -7 6 -3 13 6 9 5 9 -8 0 -8 -7 -19 -9 -23 -5 -5 4 -5 1 -1 -6 4 -7 12 -10 17 -7 5 4 9 2 9 -3 0 -17 -13 -22 -29 -9 -14 10 -14 10 -4 -3 13 -17 20 -260 8 -279 -3 -6 -11 -8 -17 -5 -7 4 -8 2 -4 -5 6 -9 11 -9 22 0 16 13 34 2 67 -39 10 -12 25 -29 34 -37 15 -16 11 -45 -6 -45 -12 0 -24 37 -16 50 4 6 -1 7 -11 3 -13 -5 -15 -3 -9 7 5 9 4 11 -3 6 -9 -5 -7 -15 5 -34 l17 -27 -25 25 c-14 14 -24 33 -23 43 2 10 -1 15 -6 12 -4 -3 -29 15 -56 40 -46 44 -49 45 -111 45 -43 0 -63 4 -63 13 -1 26 -2 163 -1 175 1 8 19 12 55 12 36 0 58 5 66 15 7 9 19 14 27 11 8 -3 11 -2 8 3 -3 5 4 12 14 16 11 3 23 15 26 26 4 10 10 19 15 19 5 0 12 9 15 21 6 17 9 18 23 7 9 -7 13 -8 9 -2 -4 7 0 17 7 23 11 10 16 8 24 -5 9 -15 11 -15 22 7 12 21 11 23 -2 11 -12 -10 -18 -10 -27 2 -9 11 -8 15 4 20 11 4 14 2 9 -6 -4 -7 -3 -8 5 -4 6 4 8 12 5 18 -4 6 -8 39 -8 74 -1 35 -6 67 -10 71 -5 5 -6 2 -1 -7 5 -8 -8 1 -29 20 -20 19 -41 34 -46 33 -5 -2 -7 3 -4 11 9 24 -56 41 -90 24 -14 -7 -16 -7 -11 2 6 9 2 9 -14 1 -11 -7 -20 -15 -19 -19 2 -4 -16 -26 -38 -50 -38 -41 -41 -43 -55 -25 -13 16 -13 17 3 4 12 -9 18 -10 18 -2 0 6 -3 12 -7 12 -21 4 -52 7 -85 10 -31 3 -35 5 -25 18 9 12 9 13 0 7 -9 -5 -13 0 -13 18 0 35 10 57 24 50 6 -3 3 1 -7 9 -18 15 -13 52 6 40 5 -3 7 -1 4 5 -4 5 -16 8 -27 5 -11 -3 -20 0 -20 6 0 6 -9 11 -20 11 -18 0 -20 6 -18 39 1 23 6 37 12 34 5 -4 7 0 3 9 -4 11 0 15 11 13 9 -1 23 3 31 9 8 6 17 10 20 9 3 -1 5 9 4 23 -2 21 1 25 16 21 10 -2 18 1 18 9 0 7 -5 10 -11 7 -6 -4 -5 1 3 10 9 11 21 15 34 11 11 -3 17 -2 14 3 -15 25 14 32 137 35 119 2 129 4 145 24 16 20 20 21 34 8 10 -8 13 -9 7 -3 -6 8 -4 22 6 40 15 30 39 38 47 17 2 -7 4 2 4 20 0 18 4 37 10 43 7 7 10 2 7 -16 -1 -15 0 -24 4 -21 8 9 10 66 2 66 -4 0 -7 7 -7 15 0 8 5 15 10 15 5 0 6 7 3 16 -3 8 -2 13 2 10 5 -3 16 4 25 15 10 11 23 17 29 13 7 -4 8 -3 4 4 -4 7 8 27 26 46 18 19 45 48 60 64 14 17 29 28 31 25 3 -2 10 5 17 16 6 12 16 18 22 15 7 -5 9 -2 5 8 -3 9 1 26 10 38 15 21 20 22 170 18 152 -5 155 -5 179 -31z m-73 -282 c-3 -9 -8 -14 -10 -11 -3 3 -2 9 2 15 9 16 15 13 8 -4z m-996 -290 c0 -8 -3 -13 -5 -10 -3 3 -11 0 -19 -6 -9 -8 -13 -8 -13 -1 0 8 20 26 36 32 0 0 1 -7 1 -15z m-44 -162 c-7 -2 -21 -2 -30 0 -10 3 -4 5 12 5 17 0 24 -2 18 -5z m0 -30 c-7 -2 -19 -2 -25 0 -7 3 -2 5 12 5 14 0 19 -2 13 -5z m7 -23 c0 -5 -9 -10 -20 -10 -11 0 -20 5 -20 10 0 6 9 10 20 10 11 0 20 -4 20 -10z m0 -29 c0 -5 -9 -7 -20 -4 -11 3 -20 7 -20 9 0 2 9 4 20 4 11 0 20 -4 20 -9z m-7 -28 c-7 -2 -19 -2 -25 0 -7 3 -2 5 12 5 14 0 19 -2 13 -5z m7 -23 c0 -5 -9 -10 -20 -10 -11 0 -20 5 -20 10 0 6 9 10 20 10 11 0 20 -4 20 -10z m515 -721 c-10 -16 54 -29 145 -29 55 0 100 -4 100 -9 0 -4 -14 -24 -31 -42 -18 -19 -26 -25 -18 -14 13 19 13 19 -4 6 -10 -8 -15 -21 -12 -30 3 -8 3 -12 0 -9 -4 4 -38 -25 -77 -63 -56 -56 -73 -68 -84 -58 -9 7 -14 8 -14 1 0 -5 -9 -8 -20 -5 -12 3 -20 2 -19 -3 3 -13 -12 -44 -20 -40 -3 2 -6 -6 -6 -19 0 -13 3 -21 8 -18 15 9 6 -10 -13 -25 -18 -15 -19 -20 -7 -53 16 -47 35 -69 52 -62 9 3 21 -8 31 -31 10 -19 21 -33 26 -30 4 3 8 1 8 -4 0 -11 42 -29 83 -36 18 -3 50 -27 85 -63 83 -85 94 -90 199 -94 53 -2 89 0 86 5 -4 5 -1 6 5 2 7 -4 12 -14 12 -23 0 -9 3 -13 7 -10 10 11 32 -13 26 -29 -3 -9 0 -12 9 -9 8 3 21 -2 29 -12 13 -17 13 -17 -6 -3 -20 14 -20 14 -1 -7 10 -13 22 -20 26 -18 4 3 11 -2 14 -11 3 -8 2 -13 -2 -10 -5 3 -9 -1 -9 -9 0 -10 5 -11 18 -5 12 7 21 5 29 -5 7 -8 27 -15 44 -15 36 0 100 -36 91 -50 -4 -6 -1 -9 6 -8 6 2 14 -3 16 -9 4 -10 -18 -13 -86 -13 -49 0 -93 -4 -96 -10 -3 -5 -11 -10 -17 -10 -6 0 -5 7 3 18 11 14 11 15 -1 5 -20 -19 -22 -43 -2 -36 10 3 1 -5 -18 -18 -34 -23 -40 -24 -198 -21 -91 2 -160 7 -157 12 3 5 1 11 -5 15 -13 8 -13 25 1 25 5 0 7 -5 3 -12 -4 -7 -3 -8 4 -4 6 4 9 13 5 22 -5 13 -8 12 -26 -3 -11 -10 -18 -13 -14 -7 4 6 -7 23 -23 38 -17 14 -30 29 -30 34 0 4 -18 20 -40 36 -25 19 -37 33 -31 39 5 5 7 16 4 24 -4 11 -8 10 -19 -4 -8 -10 -14 -13 -13 -8 3 20 -1 35 -8 33 -5 -1 -18 4 -30 12 -18 11 -20 17 -10 29 10 12 9 13 -1 7 -11 -7 -12 -4 -3 12 10 18 6 27 -21 58 -18 21 -27 34 -19 29 10 -5 12 -4 7 3 -4 7 -13 12 -19 12 -13 0 -49 31 -80 69 -17 21 -25 22 -150 20 -122 -1 -132 0 -132 17 0 11 -6 20 -12 20 -7 1 -18 2 -24 3 -8 1 -7 6 1 17 8 8 9 14 4 13 -24 -4 -42 2 -48 17 -6 15 -4 15 11 3 16 -12 17 -12 6 2 -7 9 -9 19 -5 24 4 4 -4 2 -17 -5 -13 -6 -21 -7 -17 -2 3 6 -4 19 -17 29 -28 22 -40 50 -24 57 9 3 8 7 -3 15 -18 13 -10 21 26 25 15 2 30 8 32 15 2 6 9 8 15 4 7 -4 7 -1 -1 9 -10 13 -10 18 -1 24 8 5 9 3 4 -6 -5 -9 -4 -11 4 -6 6 4 9 12 5 17 -3 5 -9 7 -14 4 -4 -3 -10 4 -13 15 -3 11 -1 23 5 26 5 3 7 12 4 20 -3 7 -1 16 5 19 5 4 7 10 4 15 -3 4 8 10 25 12 16 2 27 1 25 -3 -3 -4 6 -6 19 -5 13 0 23 3 21 5 -5 4 21 31 30 31 3 0 3 -4 0 -10 -3 -5 0 -10 8 -10 8 0 27 -18 42 -40 25 -36 47 -58 29 -28 -5 7 -3 8 5 4 7 -5 10 -15 7 -23 -4 -9 -2 -11 7 -6 20 12 40 13 56 0 12 -10 13 -9 6 2 -6 11 -2 13 19 9 21 -4 24 -3 15 9 -10 11 -8 12 6 7 12 -5 16 -4 12 3 -4 6 14 30 41 53 26 23 40 39 32 34 -13 -7 -13 -5 -2 9 8 9 12 33 11 56 -4 51 23 86 51 68 10 -6 17 -14 15 -18z m-515 -149 c0 -5 -9 -10 -20 -10 -11 0 -20 5 -20 10 0 6 9 10 20 10 11 0 20 -4 20 -10z m0 -30 c0 -5 -9 -10 -20 -10 -11 0 -20 5 -20 10 0 6 9 10 20 10 11 0 20 -4 20 -10z m-7 -27 c-7 -2 -19 -2 -25 0 -7 3 -2 5 12 5 14 0 19 -2 13 -5z m7 -23 c0 -5 -9 -10 -20 -10 -11 0 -20 5 -20 10 0 6 9 10 20 10 11 0 20 -4 20 -10z m0 -29 c0 -6 -9 -9 -20 -8 -11 1 -20 5 -20 9 0 4 9 8 20 8 11 0 20 -4 20 -9z m-7 -28 c-7 -2 -19 -2 -25 0 -7 3 -2 5 12 5 14 0 19 -2 13 -5z m487 -168 c14 -19 14 -19 -2 -6 -10 7 -18 18 -18 24 0 6 1 8 3 6 1 -2 9 -13 17 -24z" class=""></path>  <path d="M775 2669 c-4 -6 -4 -13 -1 -16 3 -4 6 -1 6 6 0 7 5 9 12 5 7 -4 8 -3 4 4 -9 15 -13 15 -21 1z"></path> <path d="M136 2158 c3 -5 10 -6 15 -3 13 9 11 12 -6 12 -8 0 -12 -4 -9 -9z"></path> <path d="M143 1975 c0 -8 4 -12 9 -9 5 3 6 10 3 15 -9 13 -12 11 -12 -6z"></path> <path d="M288 1393 c6 -2 18 -2 25 0 6 3 1 5 -13 5 -14 0 -19 -2 -12 -5z"></path> <path d="M141 976 c-8 -10 -9 -16 -1 -21 5 -3 10 -5 11 -3 4 18 7 38 4 38 -1 0 -8 -6 -14 -14z"></path> <path d="M136 782 c-3 -5 1 -9 9 -9 8 0 12 4 9 9 -3 4 -7 8 -9 8 -2 0 -6 -4 -9 -8z"></path> <path d="M526 611 c-4 -5 -2 -12 3 -15 5 -4 12 -2 15 3 4 5 2 12 -3 15 -5 4 -12 2 -15 -3z"></path> <path d="M610 526 c0 -2 8 -10 18 -17 15 -13 16 -12 3 4 -13 16 -21 21 -21 13z"></path> <path d="M1125 411 c-3 -5 -2 -12 3 -15 5 -3 9 1 9 9 0 17 -3 19 -12 6z"></path> <path d="M1386 262 c-2 -4 -1 -14 4 -22 7 -11 9 -9 7 8 -1 24 -3 26 -11 14z"></path> <path d="M2930 2795 l-34 -35 -271 0 c-254 0 -273 -1 -289 -19 -12 -13 -14 -21 -6 -26 6 -3 89 -5 186 -4 l175 2 48 -47 c44 -43 52 -47 85 -43 34 5 40 1 118 -79 l82 -84 101 0 101 0 74 -75 c65 -65 79 -75 110 -75 31 0 45 -10 115 -80 l79 -79 -22 -24 c-13 -14 -22 -36 -22 -56 0 -31 -2 -32 -35 -30 -33 3 -43 -4 -145 -106 -95 -95 -110 -114 -110 -142 l0 -33 118 0 117 0 78 -78 77 -77 0 -130 0 -130 -78 -78 -77 -77 -118 0 -117 0 0 -33 c0 -28 15 -47 113 -144 103 -103 115 -111 145 -107 30 3 32 2 32 -28 0 -19 9 -41 22 -55 l22 -24 -79 -79 c-70 -70 -84 -80 -115 -80 -31 0 -45 -10 -110 -75 l-74 -75 -99 0 -98 0 -84 -85 c-80 -81 -86 -85 -127 -85 -39 0 -49 -5 -88 -46 l-45 -45 -175 1 c-96 1 -179 1 -184 1 -5 -1 -1 -10 9 -21 17 -19 31 -20 290 -20 l271 0 34 -35 34 -35 183 0 c183 0 183 0 183 23 1 14 42 65 120 147 108 112 120 128 118 157 -2 28 7 42 62 98 l64 65 126 0 125 0 93 93 92 92 0 135 0 135 -95 -3 -95 -4 0 36 c0 20 -4 36 -9 36 -5 0 -37 -31 -71 -70 -76 -86 -92 -88 -166 -24 -54 45 -54 46 -54 102 l0 57 79 78 78 77 72 0 71 0 0 125 0 125 -73 0 -72 0 -78 78 -77 77 0 57 c0 55 1 56 54 102 75 64 90 62 166 -24 34 -38 66 -70 71 -70 5 0 9 15 9 33 l0 32 95 -3 95 -3 0 138 0 138 -93 93 -92 92 -125 0 -125 0 -65 64 c-56 56 -65 68 -62 95 3 28 -9 45 -117 160 -76 81 -121 136 -121 150 0 21 -3 21 -183 21 l-183 0 -34 -35z m368 7 c6 -2 12 -8 12 -14 0 -5 -6 -6 -12 -3 -7 4 -5 0 5 -8 9 -8 17 -18 17 -24 0 -5 14 -19 31 -32 19 -14 28 -28 25 -37 -3 -8 -2 -13 3 -10 5 3 14 -1 21 -9 7 -8 16 -12 21 -9 5 3 9 -1 9 -9 0 -8 7 -18 16 -21 9 -3 14 -13 11 -21 -4 -10 -1 -12 11 -8 15 6 16 5 2 -12 -10 -12 -10 -16 -2 -11 8 5 23 -2 39 -18 14 -14 29 -24 33 -21 3 2 7 -2 7 -10 0 -8 -4 -12 -9 -9 -12 7 2 -47 16 -65 9 -12 8 -13 -3 -7 -9 6 -12 4 -9 -5 3 -8 9 -14 14 -14 5 0 22 -9 36 -21 21 -16 24 -24 15 -33 -9 -10 -8 -11 7 -5 13 5 17 4 13 -3 -4 -6 4 -14 18 -17 14 -4 23 -10 20 -15 -8 -14 13 -17 145 -20 101 -2 128 -6 147 -21 12 -9 20 -20 17 -23 -9 -8 -35 4 -29 13 3 5 1 11 -4 14 -5 4 -12 2 -15 -3 -4 -5 -2 -12 4 -16 6 -4 8 -11 5 -16 -3 -5 1 -6 9 -3 9 4 18 -1 22 -10 3 -9 10 -14 15 -11 4 3 16 -6 25 -20 12 -19 20 -23 29 -15 9 8 14 5 18 -9 2 -11 1 -23 -4 -28 -6 -6 -4 -10 5 -10 8 0 13 4 10 9 -8 12 10 10 24 -4 7 -7 12 -27 12 -45 0 -25 -4 -33 -17 -33 -10 0 -27 -7 -37 -15 -10 -8 -24 -12 -30 -9 -6 3 -3 -1 6 -9 16 -13 16 -15 0 -31 -16 -16 -16 -17 3 -10 20 7 20 7 1 -14 -17 -20 -17 -22 -2 -28 9 -3 16 -13 16 -21 0 -9 -5 -11 -12 -7 -10 6 -10 5 -1 -7 11 -13 6 -16 -35 -18 -31 -1 -55 -9 -72 -24 -24 -21 -24 -21 -7 -1 17 21 17 22 -7 22 -15 0 -23 -5 -19 -11 3 -6 1 -7 -5 -3 -7 4 -12 13 -12 20 0 8 -7 19 -15 26 -8 7 -13 15 -11 19 3 4 0 13 -6 21 -8 12 -9 12 -4 -2 3 -12 1 -15 -9 -11 -8 3 -13 8 -10 12 6 10 -59 6 -76 -4 -8 -5 -10 -4 -5 3 16 27 -7 8 -66 -50 -55 -55 -85 -100 -56 -82 6 4 6 -2 -1 -14 -7 -13 -7 -23 -2 -27 5 -3 7 -20 4 -39 -3 -19 -1 -36 6 -40 7 -5 9 -1 4 11 -7 19 -5 18 17 -11 8 -11 10 -17 4 -13 -7 4 -14 1 -17 -6 -3 -9 4 -12 23 -11 19 1 32 -5 40 -20 7 -11 33 -39 57 -60 39 -35 52 -40 103 -44 l59 -4 3 -83 c4 -120 6 -117 -63 -114 -43 2 -63 -2 -77 -14 -10 -10 -22 -14 -25 -10 -4 3 -7 1 -7 -6 0 -16 -40 -50 -58 -51 -7 0 -10 -5 -6 -11 7 -11 -55 -81 -66 -74 -10 6 -6 -89 5 -97 6 -5 5 -8 -4 -8 -11 0 -11 -3 -1 -15 10 -12 10 -18 -1 -33 -13 -16 -13 -16 5 -2 18 14 19 13 14 -2 -5 -11 -2 -15 10 -14 9 2 24 -5 33 -15 9 -10 20 -15 24 -11 5 4 5 -1 2 -10 -4 -13 -2 -15 10 -11 11 4 14 2 9 -5 -6 -10 7 -17 17 -9 2 1 11 -4 20 -11 11 -9 17 -10 22 -2 4 6 13 9 20 6 7 -2 21 2 32 10 10 9 11 12 3 8 -8 -4 2 8 23 28 20 19 35 37 33 39 -3 3 5 11 17 18 12 8 19 10 14 6 -11 -13 41 -43 66 -38 12 2 31 -3 42 -12 11 -9 14 -14 8 -10 -14 7 -18 -7 -6 -19 10 -10 12 -36 3 -36 -14 0 -21 18 -10 23 6 3 5 4 -1 3 -7 -1 -13 -10 -15 -19 -1 -9 2 -15 6 -12 5 3 9 -3 9 -12 2 -48 4 -52 23 -42 11 6 29 8 41 6 18 -3 16 -5 -6 -6 -18 0 -27 -6 -24 -13 4 -15 27 -18 43 -6 7 5 9 -3 7 -25 -8 -67 -13 -79 -30 -73 -17 7 -53 -20 -53 -38 0 -6 9 0 19 13 14 19 20 21 26 10 5 -8 5 -11 1 -8 -8 8 -56 -37 -56 -53 0 -6 -9 -8 -19 -5 -15 4 -19 0 -16 -14 7 -34 -42 -49 -163 -49 -73 0 -119 -5 -136 -13 -14 -8 -23 -16 -20 -20 3 -3 -4 -8 -15 -12 -12 -3 -19 -11 -16 -16 4 -5 0 -9 -7 -9 -7 0 -26 -20 -43 -44 -16 -24 -32 -43 -34 -40 -2 2 2 12 10 21 12 17 12 17 -6 1 -15 -14 -16 -20 -5 -32 10 -13 10 -16 -1 -16 -11 0 -12 -2 -1 -9 10 -6 8 -15 -12 -38 -14 -17 -24 -32 -23 -34 1 -2 1 -3 -1 -2 -7 3 -72 -66 -72 -76 0 -6 -6 -8 -13 -5 -8 3 -20 -3 -28 -12 -12 -16 -12 -17 1 -10 8 5 -2 -8 -22 -29 -21 -20 -38 -42 -38 -47 0 -5 -4 -7 -9 -4 -11 7 -23 -22 -14 -36 3 -7 1 -8 -5 -4 -7 4 -12 4 -12 -1 0 -6 -240 -7 -322 -1 -20 2 -33 32 -22 50 5 8 0 7 -11 -2 -17 -14 -18 -13 -12 2 3 10 3 17 -1 17 -4 -1 -11 -1 -17 0 -5 1 -49 2 -97 1 -90 -1 -114 11 -63 30 14 5 25 12 25 15 0 4 -5 3 -12 -1 -7 -5 -8 -3 -4 5 5 7 14 10 22 7 8 -3 13 0 11 7 -1 7 17 14 48 18 83 11 108 21 103 42 -4 17 71 89 84 81 7 -4 8 -3 4 4 -12 20 31 32 115 32 64 0 87 4 102 18 15 12 18 13 12 2 -8 -13 -6 -13 8 -1 9 7 14 17 11 22 -3 5 -1 9 3 9 5 0 32 23 60 51 35 34 61 52 84 55 19 3 45 13 59 22 14 9 28 16 32 14 4 -1 5 4 2 11 -4 12 39 62 54 62 4 0 6 4 4 9 -2 5 4 6 13 2 10 -3 14 -2 9 5 -3 6 4 21 16 34 22 23 22 25 6 50 -9 14 -18 39 -19 55 -1 19 -9 32 -19 36 -10 3 -18 9 -18 13 0 3 -15 7 -32 6 -30 0 -78 31 -78 50 0 4 -7 13 -15 21 -8 9 -15 13 -15 9 0 -4 -12 8 -27 27 -15 18 -36 39 -45 46 -10 7 -18 23 -18 35 0 18 -2 19 -10 7 -9 -13 -11 -13 -20 0 -15 25 16 33 117 31 l93 -2 50 49 c27 27 51 48 52 46 2 -1 19 19 38 45 31 42 37 46 48 32 11 -14 11 -12 2 7 -7 14 -10 69 -8 142 2 66 -1 120 -5 120 -5 0 -5 5 -2 10 4 6 10 8 14 6 4 -3 13 -1 20 4 11 6 8 11 -9 20 -13 7 -20 8 -16 2 10 -16 -14 -26 -27 -12 -9 10 -9 11 0 6 7 -4 9 1 5 16 -4 16 -2 19 8 13 9 -6 11 -4 5 5 -6 10 -13 7 -27 -11 -10 -13 -17 -19 -16 -13 2 7 -9 22 -23 36 -14 13 -23 30 -21 37 3 10 0 11 -9 5 -11 -6 -12 -5 -2 7 10 12 8 15 -7 15 -10 0 -16 -5 -13 -11 3 -5 -7 5 -22 22 -22 28 -31 32 -61 28 -22 -3 -34 0 -34 8 0 8 -3 8 -9 -2 -6 -10 -25 -12 -72 -8 -35 3 -65 6 -66 6 -12 3 2 29 27 52 16 16 27 29 24 29 -4 0 6 10 22 23 16 12 32 22 35 22 4 0 11 4 16 9 5 5 2 6 -7 2 -8 -4 -6 0 4 8 11 9 16 16 10 16 -5 0 5 9 21 20 17 11 30 25 30 32 0 8 14 13 38 12 20 0 37 3 37 7 0 4 8 10 18 13 11 4 18 17 18 36 1 17 9 39 18 49 21 23 20 33 -4 63 -10 14 -16 29 -12 33 4 5 2 5 -4 2 -7 -4 -34 13 -60 38 -27 25 -44 45 -39 45 6 0 -7 9 -28 19 -20 9 -35 20 -32 23 3 2 -2 5 -10 5 -8 0 -12 -4 -10 -7 3 -4 -7 -7 -21 -7 -15 0 -21 3 -14 7 8 5 3 14 -17 29 -15 13 -21 19 -13 15 9 -4 12 -3 7 2 -5 5 -12 9 -15 9 -20 2 -52 18 -52 26 0 6 6 7 13 4 6 -4 4 0 -5 8 -10 8 -14 18 -10 23 4 4 -2 2 -12 -6 -18 -13 -19 -13 -14 2 10 24 -14 31 -127 38 -71 3 -99 9 -98 17 2 7 -3 10 -11 7 -7 -3 -25 8 -39 25 -13 16 -27 28 -30 25 -2 -3 -3 7 -2 21 2 14 -1 23 -6 19 -5 -3 -7 -11 -3 -17 3 -7 -2 -3 -10 7 -27 34 -70 56 -108 56 -28 0 -44 8 -72 35 -20 19 -36 37 -36 39 0 3 38 6 85 8 72 3 84 1 80 -12 -3 -8 4 -3 16 13 20 26 48 39 33 15 -4 -7 -3 -8 5 -4 6 4 9 11 6 16 -3 5 4 18 16 29 20 18 34 20 173 19 83 0 157 -3 164 -6z m712 -567 c13 -14 22 -26 19 -28 -2 -1 -16 10 -31 25 -15 15 -23 28 -19 28 4 0 18 -11 31 -25z m83 -192 c-7 -2 -21 -2 -30 0 -10 3 -4 5 12 5 17 0 24 -2 18 -5z m0 -30 c-7 -2 -21 -2 -30 0 -10 3 -4 5 12 5 17 0 24 -2 18 -5z m7 -23 c0 -5 -12 -10 -26 -10 -14 0 -23 4 -19 10 3 6 15 10 26 10 10 0 19 -4 19 -10z m-60 -10 c0 -5 -5 -10 -11 -10 -5 0 -7 5 -4 10 3 6 8 10 11 10 2 0 4 -4 4 -10z m53 -17 c-7 -2 -21 -2 -30 0 -10 3 -4 5 12 5 17 0 24 -2 18 -5z m0 -30 c-7 -2 -21 -2 -30 0 -10 3 -4 5 12 5 17 0 24 -2 18 -5z m7 -23 c0 -5 -11 -10 -25 -10 -14 0 -25 5 -25 10 0 6 11 10 25 10 14 0 25 -4 25 -10z m0 -870 c0 -5 -12 -10 -26 -10 -14 0 -23 4 -19 10 3 6 15 10 26 10 10 0 19 -4 19 -10z m-4 -27 c-11 -11 -35 -12 -42 -2 -3 5 7 9 22 9 15 0 24 -3 20 -7z m-3 -30 c-7 -2 -21 -2 -30 0 -10 3 -4 5 12 5 17 0 24 -2 18 -5z m7 -23 c0 -5 -11 -10 -25 -10 -14 0 -25 5 -25 10 0 6 11 10 25 10 14 0 25 -4 25 -10z m-30 -22 c17 2 30 0 30 -6 0 -6 -9 -8 -20 -5 -11 3 -26 0 -34 -6 -10 -9 -15 -8 -19 3 -3 8 -3 17 1 21 4 3 8 2 10 -3 1 -4 16 -6 32 -4z m-1145 -597 c3 -5 1 -12 -5 -16 -5 -3 -10 1 -10 9 0 18 6 21 15 7z" class="" stroke-width="1"></path> <path d="M3300 2754 c0 -5 7 -18 15 -28 8 -11 15 -16 15 -10 0 5 -7 18 -15 28 -8 11 -15 16 -15 10z"></path>  <path d="M2990 2547 c0 -2 6 -10 14 -16 11 -9 16 -9 22 1 4 7 4 10 -1 6 -4 -4 -14 -3 -22 3 -7 6 -13 9 -13 6z"></path> <path d="M3521 2474 c0 -11 3 -14 6 -6 3 7 2 16 -1 19 -3 4 -6 -2 -5 -13z"></path> <path d="M3560 2416 c0 -2 8 -10 18 -17 15 -13 16 -12 3 4 -13 16 -21 21 -21 13z"></path>  <path d="M3495 2000 c3 -5 8 -10 11 -10 2 0 4 5 4 10 0 6 -5 10 -11 10 -5 0 -7 -4 -4 -10z"></path> <path d="M3689 1988 c-5 -18 -6 -38 -1 -34 7 8 12 36 6 36 -2 0 -4 -1 -5 -2z"></path> <path d="M3596 1783 c-6 -14 -5 -15 5 -6 7 7 10 15 7 18 -3 3 -9 -2 -12 -12z"></path>  <path d="M3730 1616 c0 -2 8 -10 18 -17 15 -13 16 -12 3 4 -13 16 -21 21 -21 13z"></path> <path d="M3630 1245 c-7 -8 -16 -13 -20 -10 -4 2 -18 -8 -31 -23 l-24 -27 25 22 c24 21 29 23 49 23 5 0 11 7 15 15 7 19 2 19 -14 0z"></path> <path d="M3460 986 c0 -2 7 -9 15 -16 13 -11 14 -10 9 4 -5 14 -24 23 -24 12z"></path>                   <path d="M39 2213 c-13 -16 -12 -17 4 -4 9 7 17 15 17 17 0 8 -8 3 -21 -13z" class=""></path>  <path d="M3956 1798 c5 -8 2 -9 -10 -5 -9 4 -15 3 -11 -2 3 -6 14 -9 25 -8 14 1 16 4 8 14 -13 16 -22 17 -12 1z"></path> <path d="M227 1779 c7 -7 15 -10 18 -7 3 3 -2 9 -12 12 -14 6 -15 5 -6 -5z"></path> <path d="M3985 1769 c-4 -6 -5 -12 -2 -15 2 -3 7 2 10 11 7 17 1 20 -8 4z"></path> <path d="M429 1724 c-7 -8 -7 -14 1 -19 6 -4 9 -1 8 6 -2 7 2 13 9 14 17 0 25 12 8 12 -8 0 -20 -6 -26 -13z"></path>   <path d="M167 1649 c7 -7 15 -10 18 -7 3 3 -2 9 -12 12 -14 6 -15 5 -6 -5z"></path> <path d="M3790 1650 c8 -5 20 -10 25 -10 6 0 3 5 -5 10 -8 5 -19 10 -25 10 -5 0 -3 -5 5 -10z"></path> <path d="M3966 1618 c3 -4 9 -8 15 -8 5 0 9 4 9 8 0 5 -7 9 -15 9 -8 0 -12 -4 -9 -9z"></path>       <path d="M424 1213 c16 -20 36 -23 36 -6 0 4 -3 3 -7 0 -3 -4 -16 1 -27 10 -21 18 -21 18 -2 -4z"></path> <path d="M3869 1163 c-13 -16 -12 -17 4 -4 16 13 21 21 13 21 -2 0 -10 -8 -17 -17z"></path> <path d="M3889 1153 c-13 -16 -12 -17 4 -4 16 13 21 21 13 21 -2 0 -10 -8 -17 -17z"></path>  <path d="M3954 1132 c4 -3 14 -7 22 -8 9 -1 13 0 10 4 -4 3 -14 7 -22 8 -9 1 -13 0 -10 -4z"></path>  <path d="M370 1101 c0 -6 4 -13 10 -16 6 -3 7 1 4 9 -7 18 -14 21 -14 7z"></path> <path d="M351 1084 c0 -11 3 -14 6 -6 3 7 2 16 -1 19 -3 4 -6 -2 -5 -13z"></path> <path d="M3735 1069 c-3 -4 2 -6 10 -5 21 3 28 13 10 13 -9 0 -18 -4 -20 -8z"></path>  <path d="M3746 1032 c-3 -5 1 -9 9 -9 8 0 12 4 9 9 -3 4 -7 8 -9 8 -2 0 -6 -4 -9 -8z"></path>   <path d="M4114 722 c4 -3 14 -7 22 -8 9 -1 13 0 10 4 -4 3 -14 7 -22 8 -9 1 -13 0 -10 -4z"></path>  <path d="M4062 696 c4 -5 3 -19 -2 -32 -6 -16 -5 -25 3 -30 7 -4 9 -4 5 0 -4 5 -3 19 2 32 6 16 5 25 -3 30 -7 4 -9 4 -5 0z"></path>   <path d="M3983 605 c0 -8 4 -12 9 -9 5 3 6 10 3 15 -9 13 -12 11 -12 -6z"></path> <path d="M458 588 c-9 -23 9 -52 72 -113 l62 -60 -7 35 c-8 41 -119 161 -127 138z"></path> <path d="M3643 538 c-49 -49 -63 -70 -63 -93 0 -29 1 -29 66 36 53 54 65 71 62 93 -3 26 -5 25 -65 -36z" class=""></path> <path d="M173 565 c0 -8 4 -12 9 -9 5 3 6 10 3 15 -9 13 -12 11 -12 -6z"></path>  <path d="M3740 551 c0 -6 4 -13 10 -16 6 -3 7 1 4 9 -7 18 -14 21 -14 7z"></path> <path d="M3719 513 c-13 -16 -12 -17 4 -4 16 13 21 21 13 21 -2 0 -10 -8 -17 -17z"></path> <path d="M400 516 c0 -2 8 -10 18 -17 15 -13 16 -12 3 4 -13 16 -21 21 -21 13z"></path> <path d="M3729 493 c-13 -16 -12 -17 4 -4 16 13 21 21 13 21 -2 0 -10 -8 -17 -17z"></path>  <path d="M3642 437 c-8 -10 -6 -13 11 -14 12 0 16 1 9 4 -6 3 -10 9 -6 14 8 14 -2 11 -14 -4z"></path>      <path d="M3530 331 c0 -6 4 -13 10 -16 6 -3 7 1 4 9 -7 18 -14 21 -14 7z"></path>     <path d="M2886 103 c-6 -14 -5 -15 5 -6 7 7 10 15 7 18 -3 3 -9 -2 -12 -12z"></path> <path d="M2895 80 c-3 -6 1 -7 9 -4 18 7 21 14 7 14 -6 0 -13 -4 -16 -10z"></path> </g> </svg>