<?xml version="1.0" standalone="no"?>
<!DOCTYPE svg PUBLIC "-//W3C//DTD SVG 20010904//EN"
 "http://www.w3.org/TR/2001/REC-SVG-20010904/DTD/svg10.dtd">
<svg version="1.0" xmlns="http://www.w3.org/2000/svg"
 width="357.000000pt" height="31.000000pt" viewBox="0 0 357.000000 31.000000"
 preserveAspectRatio="xMidYMid meet">
<g transform="translate(0.000000,31.000000) scale(0.100000,-0.100000)"
fill="#000000" stroke="none">
<path d="M3194 235 c-12 -8 -25 -11 -29 -7 -5 4 -5 1 -1 -5 9 -16 -6 -17 -21
-2 -8 8 -13 7 -18 -2 -5 -7 -4 -10 2 -6 6 4 13 0 16 -8 4 -10 1 -12 -10 -8
-11 4 -14 2 -9 -5 14 -23 -37 -34 -145 -33 -76 1 -109 -2 -109 -10 0 -6 -7 -8
-16 -5 -11 4 -15 2 -11 -8 3 -7 0 -19 -6 -25 -6 -6 -7 -11 -3 -11 5 0 3 -7 -4
-15 -7 -8 -17 -12 -23 -8 -6 4 -7 1 -2 -6 5 -9 10 -10 18 -2 18 18 24 13 21
-16 -5 -51 6 -53 318 -52 247 0 287 2 292 15 11 30 6 210 -6 222 -18 18 -228
16 -254 -3z m246 -110 l0 -105 -287 0 -288 0 3 55 4 55 116 0 117 1 60 49 60
50 107 0 108 0 0 -105z"/>
<path d="M272 153 c-7 -2 -17 -14 -23 -25 -9 -16 -8 -19 2 -13 9 6 11 3 6 -8
-4 -12 -2 -14 10 -10 9 4 14 2 11 -3 -7 -12 17 -35 27 -26 4 4 2 -3 -4 -16
-12 -22 -12 -22 -58 23 -26 25 -55 47 -65 51 -10 3 -16 9 -14 13 3 4 -6 7 -19
7 -13 0 -21 -4 -19 -8 3 -4 1 -8 -4 -8 -16 0 -9 -104 7 -117 26 -20 124 -16
153 7 20 15 28 17 38 7 12 -10 12 -9 1 6 -20 26 1 20 28 -8 21 -23 30 -25 113
-25 73 0 93 3 103 17 10 14 8 20 -14 41 -21 19 -22 23 -6 17 11 -3 16 -2 11 2
-4 4 -18 8 -29 8 -15 0 -22 6 -21 17 1 10 -3 15 -9 11 -5 -3 -16 2 -24 12 -7
11 -13 15 -13 11 0 -4 -7 0 -16 8 -11 12 -34 16 -87 15 -40 0 -78 -3 -85 -6z
m-8 -125 c6 -4 -20 -8 -57 -8 l-67 0 0 56 0 56 58 -48 c31 -27 61 -52 66 -56z
m225 50 l64 -53 -77 -3 c-84 -3 -84 -3 -176 77 l-35 30 80 1 80 0 64 -52z"/>
<path d="M555 149 c-4 -6 -13 -8 -21 -5 -7 3 -16 0 -20 -7 -4 -7 -4 -9 -1 -6
8 7 113 -93 109 -103 -1 -5 4 -7 10 -6 7 2 12 -2 11 -8 -2 -8 32 -12 112 -12
l114 0 -15 29 c-8 16 -23 35 -34 42 -11 6 -20 15 -20 19 0 8 21 5 39 -6 10 -7
12 -5 6 5 -4 8 3 2 16 -12 13 -14 36 -34 51 -43 15 -10 26 -21 23 -25 -7 -12
172 -13 195 -1 16 8 18 15 10 29 -7 15 -6 20 6 25 21 8 47 -13 40 -31 -3 -8
-2 -12 3 -9 5 3 22 -1 37 -9 33 -17 179 -21 189 -5 4 6 -24 10 -76 10 l-81 0
-65 53 -65 52 81 3 82 3 57 -49 c88 -74 88 -74 89 -51 1 10 -4 19 -10 19 -7 0
-20 8 -28 18 -9 11 -27 26 -39 35 -13 9 -21 19 -18 22 3 3 13 -1 21 -10 17
-16 32 -20 22 -6 -3 5 -1 12 5 16 9 6 14 -8 11 -28 -1 -5 3 -6 8 -2 6 3 21
-11 34 -32 19 -30 22 -41 13 -53 -10 -13 -9 -13 6 -1 10 7 15 17 12 22 -3 5 0
9 5 9 6 0 11 -3 11 -7 0 -30 192 -47 219 -21 6 7 22 13 34 13 12 1 21 6 19 14
-1 7 2 9 8 6 6 -4 9 -13 6 -21 -3 -7 0 -16 6 -20 7 -5 8 -2 3 6 -6 10 -4 11
11 4 10 -5 59 -10 109 -11 91 -1 115 7 93 34 -6 7 -8 14 -4 14 3 1 9 2 14 3 4
1 13 5 21 10 9 6 12 5 8 -1 -7 -11 16 -37 25 -28 3 3 13 -4 23 -15 16 -17 31
-20 107 -20 48 0 89 3 89 8 6 33 5 52 -2 52 -15 0 -54 44 -51 57 4 16 -15 26
-24 12 -5 -8 -3 -9 6 -4 9 5 11 4 6 -4 -6 -9 -11 -9 -22 0 -7 6 -12 15 -9 18
5 10 -3 11 -93 17 -56 4 -82 2 -108 -11 -31 -15 -33 -18 -22 -38 7 -12 11 -26
10 -30 -1 -5 2 -6 8 -2 6 4 4 15 -6 31 -24 35 -11 29 19 -9 l25 -33 -24 -2
c-17 -1 -28 6 -39 28 -10 19 -20 27 -30 24 -13 -5 -19 5 -16 28 0 3 -11 5 -24
3 -13 -1 -22 2 -19 6 3 5 -31 9 -75 9 -44 0 -83 -5 -86 -10 -4 -6 -11 -7 -17
-4 -6 4 -8 2 -4 -4 3 -5 0 -13 -6 -15 -10 -4 -10 -6 0 -6 7 -1 10 -6 6 -13 -4
-6 -3 -8 3 -5 13 8 24 -15 15 -31 -5 -7 -12 -6 -24 2 -10 7 -14 16 -10 20 4 4
0 6 -8 4 -10 -2 -14 3 -12 14 2 13 -2 16 -14 11 -13 -5 -16 -2 -11 9 4 12 0
15 -19 13 -13 -1 -24 2 -24 6 0 5 -36 9 -80 9 -50 0 -80 -4 -80 -11 0 -5 -4
-8 -9 -5 -5 3 -14 -1 -21 -9 -13 -16 -43 -9 -33 9 3 6 -3 3 -14 -7 -12 -11
-24 -14 -27 -9 -3 6 -3 12 1 15 5 2 3 2 -4 1 -7 -2 -15 1 -18 6 -10 16 -151
12 -168 -5 -8 -8 -18 -11 -22 -7 -4 4 -6 3 -5 -3 5 -25 -2 -27 -27 -4 -14 13
-23 18 -19 12 10 -18 -19 -16 -34 2 -9 11 -33 15 -84 15 -73 0 -111 -14 -111
-42 0 -7 -7 -13 -15 -13 -20 0 -62 30 -54 38 4 4 -3 5 -14 2 -12 -2 -24 0 -27
6 -8 13 -152 12 -160 -2z m222 -71 l65 -53 -81 -3 -81 -3 -65 56 -65 55 81 0
81 0 65 -52z m287 0 l65 -53 -80 -3 -80 -3 -57 48 c-31 26 -61 51 -66 55 -6 4
27 8 72 8 l82 0 64 -52z m46 30 c18 3 34 -23 24 -39 -9 -15 -26 -10 -20 7 3 8
2 13 -2 10 -11 -7 -52 22 -52 36 0 6 7 5 17 -3 9 -8 24 -13 33 -11z m515 -19
c89 -73 89 -69 0 -69 l-80 0 -68 55 -68 55 83 0 c83 0 84 0 133 -41z m301 -11
l66 -53 -81 -3 -82 -3 -57 48 c-31 26 -61 51 -66 55 -6 4 27 8 72 8 l83 0 65
-52z m288 0 l65 -53 -81 -3 -80 -3 -56 47 c-32 26 -61 51 -66 56 -6 4 27 8 72
8 l82 0 64 -52z m-466 -26 c13 -20 12 -21 -7 -17 -32 6 -41 14 -34 31 7 19 22
14 41 -14z"/>
<path d="M2283 153 c-34 -13 -5 -23 68 -23 l82 0 63 -47 c34 -27 65 -52 67
-58 3 -6 -25 -9 -77 -7 -77 3 -83 5 -126 41 -69 58 -100 75 -111 64 -6 -6 -4
-16 8 -29 10 -11 14 -14 9 -7 -20 30 2 18 53 -28 29 -27 57 -46 62 -43 5 3 9
0 9 -6 0 -7 30 -10 92 -8 127 4 128 15 9 118 -37 32 -63 40 -128 39 -38 0 -74
-3 -80 -6z"/>
<path d="M2549 137 c-21 -19 -23 -25 -12 -35 10 -10 13 -10 13 -1 0 7 11 2 25
-11 13 -12 22 -27 19 -31 -3 -5 1 -6 9 -3 9 3 21 -4 29 -15 8 -12 18 -18 21
-14 4 3 7 2 7 -4 0 -15 34 -22 45 -9 12 13 13 96 2 113 -4 6 -4 13 0 16 5 2 2
2 -4 1 -7 -2 -13 1 -13 6 0 6 -26 10 -57 10 -46 -1 -63 -5 -84 -23z m141 -63
l0 -54 -64 52 c-35 29 -65 55 -65 58 -1 3 28 3 64 2 l65 -4 0 -54z"/>
<path d="M210 140 c-12 -7 -10 -9 7 -7 12 0 19 5 17 9 -6 10 -6 10 -24 -2z"/>
<path d="M2805 140 c-3 -6 1 -7 9 -4 18 7 21 14 7 14 -6 0 -13 -4 -16 -10z"/>
<path d="M84 50 c0 -13 4 -16 10 -10 7 7 7 13 0 20 -6 6 -10 3 -10 -10z"/>
<path d="M2020 36 c0 -2 8 -10 18 -17 15 -13 16 -12 3 4 -13 16 -21 21 -21 13z"/>
<path d="M2063 15 c0 -8 4 -12 9 -9 5 3 6 10 3 15 -9 13 -12 11 -12 -6z"/>
</g>
</svg>
